<svg width="18" height="18" viewBox="0 0 512 512" fill="none" xmlns="http://www.w3.org/2000/svg">
<path d="M466.748 94.9707C483.586 94.9691 499.353 98.8045 506.566 111.298C513.779 123.791 509.218 139.363 500.797 153.944C492.014 169.154 477.251 186.476 458.086 204.803C419.658 241.551 362.1 283.688 294.531 322.699C226.961 361.71 161.69 390.489 110.652 405.395C85.1981 412.828 62.8154 416.951 45.2522 416.953C28.4139 416.955 12.6479 413.119 5.43481 400.626C-1.77823 388.133 2.7828 372.561 11.2034 357.979C19.9865 342.77 34.7491 325.449 53.9133 307.122C92.3411 270.374 149.9 228.236 217.469 189.225C269.725 159.055 320.607 135.006 364.594 118.761C369.659 122.774 374.497 127.061 379.084 131.601C334.38 147.374 281.11 172.111 225.969 203.947C159.22 242.485 102.851 283.846 65.6633 319.408C47.0202 337.236 33.5529 353.272 25.925 366.48C17.9349 380.316 17.9034 388.223 20.1565 392.126C22.4097 396.029 29.2727 399.955 45.2502 399.953C60.5032 399.952 81.1248 396.307 105.886 389.075C155.277 374.651 219.282 346.514 286.031 307.977C352.779 269.439 409.149 228.078 446.337 192.516C464.98 174.688 478.447 158.652 486.074 145.443C494.065 131.607 494.096 123.701 491.843 119.798C489.59 115.895 482.727 111.969 466.749 111.971C451.496 111.972 430.876 115.617 406.115 122.849C402.004 124.049 397.792 125.344 393.486 126.732C392.384 127.088 391.176 126.78 390.371 125.948C387.564 123.049 384.664 120.24 381.676 117.526C379.96 115.968 380.511 113.115 382.709 112.381C389.107 110.241 395.327 108.289 401.349 106.53C426.802 99.0967 449.185 94.9725 466.748 94.9707Z" fill="black"/>
<path d="M421.355 251.56C425.262 248.487 431 251.029 431 256C431 352.65 352.65 431 256 431C222.001 431 190.268 421.303 163.413 404.527C161.296 403.204 161.646 400.066 163.97 399.157C196.783 386.319 232.129 369.821 267.682 350.791C303.244 331.755 338.34 310.547 370.655 288.556C388.714 276.266 405.73 263.85 421.355 251.56Z" fill="black"/>
<path d="M256 81C330.726 81 394.51 127.837 419.604 193.755C420.904 197.172 419.861 201.016 417.079 203.389C397.321 220.242 374.007 237.891 348.151 255.486C317.044 276.655 283.162 297.134 248.805 315.524C214.438 333.92 180.533 349.725 149.396 361.907C142.723 364.518 136.232 366.94 129.94 369.172C126.495 370.394 122.645 369.379 120.335 366.547C95.7471 336.41 81 297.928 81 256C81 159.35 159.35 81 256 81Z" fill="black"/>
</svg>
