<svg width="20" height="20" viewBox="0 0 512 512" fill="none" xmlns="http://www.w3.org/2000/svg">
<path d="M100.613 289.084C61.0362 321.145 34.6813 349.703 24.2107 370.456C18.9246 380.932 18.7406 387.323 20.0851 390.788C21.2223 393.719 24.534 397.124 33.8565 398.801C43.1771 400.478 56.5155 399.968 73.6279 396.836C90.6085 393.728 110.752 388.147 133.43 380.137C178.787 364.117 231.331 339.431 283.246 309.686C335.158 279.943 383.465 246.848 421.029 215.351C458.946 183.559 482.798 155.986 490.772 136.759C494.731 127.215 493.866 122.026 492.141 119.318C490.325 116.468 485.598 113.229 474.677 112.176C452.892 110.076 416.138 117.69 369.169 135.21L363.227 119.282C410.522 101.641 450.403 92.7566 476.309 95.2544C489.232 96.5006 500.483 100.776 506.477 110.182C512.562 119.731 511.34 131.543 506.475 143.272C496.802 166.594 470.076 196.411 431.951 228.378C393.473 260.64 344.304 294.295 291.697 324.437C239.092 354.577 185.611 379.737 139.092 396.167C115.832 404.382 94.7926 410.246 76.6885 413.559C58.7163 416.848 43.0687 417.732 30.8466 415.533C18.6264 413.335 8.40905 407.695 4.23535 396.937C0.269136 386.714 2.99109 374.773 9.03291 362.798C21.2183 338.647 50.0045 308.204 89.9121 275.875L100.613 289.084Z" fill="black"/>
<path d="M429.263 231.263C430.406 239.344 431 247.603 431 256C431 352.65 352.65 431 256 431C212.833 431 173.318 415.369 142.802 389.461C148.948 387.351 155.211 385.093 161.576 382.692C187.918 402.357 220.599 414 256 414C343.261 414 414 343.261 414 256C414 251.719 413.826 247.478 413.492 243.283C418.878 239.275 424.138 235.265 429.263 231.263Z" fill="black"/>
<path d="M256 81C314.979 81 367.141 110.178 398.845 154.884C401.346 158.411 400.686 163.171 397.339 165.906C393.392 169.13 387.46 168.179 384.49 164.037C355.821 124.052 308.954 98 256 98C168.739 98 98 168.739 98 256C98 277.025 102.107 297.091 109.561 315.439C111.517 320.251 108.994 325.901 104.027 327.42C99.9705 328.662 95.7879 326.638 94.1696 322.717C85.6833 302.156 81 279.625 81 256C81 159.35 159.35 81 256 81Z" fill="black"/>
</svg>
